<svg xmlns="http://www.w3.org/2000/svg" width="150" height="150" viewBox="0 0 150 150"><circle fill="#FFF" cx="75" cy="75" r="75"/><linearGradient id="a" gradientUnits="userSpaceOnUse" x1="19.054" y1="56.188" x2="64.508" y2="100.127"><stop offset=".33" stop-color="#263238" stop-opacity=".16"/><stop offset="1" stop-color="#263238" stop-opacity="0"/></linearGradient><path fill="url(#a)" d="M78.423 86.052l-28.532 28.532-31.836-31.837 28.531-28.531z"/><linearGradient id="b" gradientUnits="userSpaceOnUse" x1="109.497" y1="78.847" x2="143.54" y2="111.755"><stop offset=".33" stop-color="#263238" stop-opacity=".16"/><stop offset="1" stop-color="#263238" stop-opacity="0"/></linearGradient><path fill="url(#b)" d="M128.318 127.734c10.769-10.888 18.225-25.053 20.739-40.869l-14.138-14.138-30.804 30.804 24.203 24.203z"/><linearGradient id="c" gradientUnits="userSpaceOnUse" x1="62.917" y1="69.19" x2="112.917" y2="118.433"><stop offset=".33" stop-color="#263238" stop-opacity=".16"/><stop offset="1" stop-color="#263238" stop-opacity="0"/></linearGradient><path fill="url(#c)" d="M123.087 71.737l-39.804 74.648-28.016-28.017 39.804-74.647z"/><path fill="none" stroke="#4285F4" stroke-width="8.509" stroke-linejoin="bevel" stroke-miterlimit="10" d="M101.895 56.882l30.131 20.915-30.131 20.917M48.889 56.882L18.758 77.797 48.89 98.714M90.959 42.136l-31.918 77.596"/><g><radialGradient id="d" cx="-22.563" cy="27.538" r="134.194" gradientTransform="translate(38.17 -38.98) scale(1.5152)" gradientUnits="userSpaceOnUse"><stop offset="0" stop-color="#fff"/><stop offset="1" stop-color="#fff" stop-opacity="0"/></radialGradient><circle opacity=".08" fill="url(#d)" cx="75" cy="75" r="75"/></g></svg>